<?xml version="1.0" encoding="UTF-8" standalone="no"?>
<svg
   xmlns:dc="http://purl.org/dc/elements/1.1/"
   xmlns:cc="http://creativecommons.org/ns#"
   xmlns:rdf="http://www.w3.org/1999/02/22-rdf-syntax-ns#"
   xmlns:svg="http://www.w3.org/2000/svg"
   xmlns="http://www.w3.org/2000/svg"
   xmlns:sodipodi="http://sodipodi.sourceforge.net/DTD/sodipodi-0.dtd"
   xmlns:inkscape="http://www.inkscape.org/namespaces/inkscape"
   version="1.1"
   x="0px"
   y="0px"
   viewBox="0 0 300 300"
   enable-background="new 0 0 100 100"
   xml:space="preserve"
   id="svg1078"
   sodipodi:docname="their-hand.svg"
   width="300"
   height="300"
   inkscape:version="0.92.4 (5da689c313, 2019-01-14)"><metadata
     id="metadata1084"><rdf:RDF><cc:Work
         rdf:about=""><dc:format>image/svg+xml</dc:format><dc:type
           rdf:resource="http://purl.org/dc/dcmitype/StillImage" /><dc:title></dc:title></cc:Work></rdf:RDF></metadata><defs
     id="defs1082" /><sodipodi:namedview
     pagecolor="#ffffff"
     bordercolor="#666666"
     borderopacity="1"
     objecttolerance="10"
     gridtolerance="10"
     guidetolerance="10"
     inkscape:pageopacity="0"
     inkscape:pageshadow="2"
     inkscape:window-width="1366"
     inkscape:window-height="713"
     id="namedview1080"
     showgrid="false"
     inkscape:snap-global="false"
     inkscape:zoom="1.4797076"
     inkscape:cx="143.37556"
     inkscape:cy="164.19034"
     inkscape:window-x="0"
     inkscape:window-y="0"
     inkscape:window-maximized="1"
     inkscape:current-layer="svg1078" /><path
     style="fill:#d4b036;fill-opacity:1;stroke:none;stroke-width:5.4101367px;stroke-linecap:butt;stroke-linejoin:miter;stroke-opacity:1"
     d="M 193.99219 3.1503906 C 186.38112 3.0344209 178.84442 5.7486704 175.20508 11.267578 L 134.76367 118.4375 L 157.68164 25.421875 C 155.414 6.2730201 129.36984 6.1347593 120.60938 22.052734 L 87.582031 115.74023 L 99.714844 58.449219 C 107.72503 25.998136 70.015276 25.724413 59.947266 53.056641 C 59.947266 53.056641 24.898624 163.5965 24.224609 167.64062 C 11.564207 228.18782 37.344496 259.98086 61.296875 278.17969 C 103.62408 298.52654 137.57734 305.83679 174.50586 281.55469 C 174.51439 281.55296 174.52271 281.55251 174.53125 281.55078 L 174.61914 281.48047 C 175.26351 281.05571 175.90649 280.64528 176.55273 280.20117 C 176.6237 280.05769 176.69284 279.9094 176.76367 279.76562 L 229.54102 237.54297 L 272.26367 203.36328 C 289.24549 187.92788 272.3467 152.62481 246.65234 166.29297 L 213.44141 179.9668 C 224.21969 144.32557 234.39049 107.48307 245.97656 73.951172 C 250.24852 47.707302 220.17288 47.132513 214.97266 58.449219 L 177.22656 131.24414 L 214.97266 27.443359 C 219.56981 11.399091 206.67731 3.3436735 193.99219 3.1503906 z "
     id="base" /><g
     id="highlight"><path
       sodipodi:nodetypes="cccc"
       inkscape:connector-curvature="0"
       id="path1667"
       d="M 45.142023,144.08425 C 52.584316,129.90987 165.97183,132.09417 169.2563,139.75802 120.13126,180.3347 40.235694,218.62625 32.980706,198.9164 32.880842,188.54683 31.608588,164.19394 45.142023,144.08425 Z"
       style="fill:#e1c873;fill-opacity:1;stroke:none;stroke-width:5.4101367px;stroke-linecap:butt;stroke-linejoin:miter;stroke-opacity:1" /><path
       sodipodi:nodetypes="ccccc"
       inkscape:connector-curvature="0"
       id="path1669"
       d="m 178.03342,16.019203 -35.54936,98.952477 c 3.10057,5.37476 5.14829,13.3043 19.81079,5.96084 L 197.77912,15.102781 c -5.80722,-8.2161592 -15.01605,-4.695837 -19.7457,0.916422 z"
       style="fill:#e1c873;fill-opacity:1;stroke:none;stroke-width:5.4101367px;stroke-linecap:butt;stroke-linejoin:miter;stroke-opacity:1" /><path
       sodipodi:nodetypes="ccccc"
       inkscape:connector-curvature="0"
       id="path1671"
       d="m 184.06461,130.42102 c 3.24164,7.82 7.9247,10.05388 17.16703,5.87249 L 231.7426,62.65615 c -2.29334,-9.055456 -8.84738,-7.961706 -12.05563,-4.240951 z"
       style="fill:#e1c873;fill-opacity:1;stroke:none;stroke-width:5.4101367px;stroke-linecap:butt;stroke-linejoin:miter;stroke-opacity:1" /><path
       sodipodi:nodetypes="ccccc"
       inkscape:connector-curvature="0"
       id="path1673"
       d="m 123.21327,25.161594 c 6.8029,-11.330394 16.55421,-9.429236 17.7968,-5.833227 l -28.36414,92.792623 c -10.74337,11.83001 -14.920998,2.67578 -17.042368,-0.87046 z"
       style="fill:#e1c873;fill-opacity:1;stroke:none;stroke-width:5.4101367px;stroke-linecap:butt;stroke-linejoin:miter;stroke-opacity:1" /><path
       sodipodi:nodetypes="ccccc"
       inkscape:connector-curvature="0"
       id="path1675"
       d="m 46.713905,113.37868 c 0.854579,8.25304 8.592444,7.90204 19.015202,4.1949 L 80.518705,46.794819 c -5.997773,-4.615495 -11.25344,-1.677465 -13.127351,3.184515 z"
       style="fill:#e1c873;fill-opacity:1;stroke:none;stroke-width:5.4101367px;stroke-linecap:butt;stroke-linejoin:miter;stroke-opacity:1" /><path
       sodipodi:nodetypes="ccccc"
       inkscape:connector-curvature="0"
       id="path1679"
       d="m 255.62906,168.41589 c -28.89145,15.71025 -54.87483,19.21418 -80.75575,17.29213 -44.15976,0.31542 -69.68936,20.4981 -93.013323,45.43781 29.227643,-10.59765 58.210913,-25.87573 90.133443,-19.95849 36.39489,9.01849 54.47598,-22.92668 83.63563,-42.77145 z"
       style="fill:#e1c873;fill-opacity:1;stroke:none;stroke-width:5.4101367px;stroke-linecap:butt;stroke-linejoin:miter;stroke-opacity:1" /></g></svg>